<svg width="112" height="112" viewBox="0 0 112 112" fill="none" xmlns="http://www.w3.org/2000/svg">
<path d="M35.7744 24.0625C38.115 21.1487 38.6925 19.18 38.4519 18.3137C38.2681 17.6619 37.3975 17.325 37.3887 17.325C36.5965 17.0646 35.9232 16.5299 35.4902 15.8172C35.0572 15.1045 34.8929 14.2606 35.027 13.4375C35.161 12.6144 35.5845 11.8662 36.2212 11.3276C36.858 10.7891 37.6661 10.4956 38.5 10.5C38.853 10.5003 39.2039 10.5534 39.5412 10.6575C39.9787 10.7931 43.8769 12.1144 45.1369 16.24C46.2131 19.7706 44.8963 23.8744 41.2256 28.4419C38.885 31.3556 38.3075 33.3244 38.5481 34.1906C38.7319 34.8425 39.585 35.1706 39.5938 35.175C40.3845 35.4349 41.0568 35.9682 41.4899 36.6791C41.923 37.3899 42.0885 38.2319 41.9568 39.0538C41.8251 39.8758 41.4047 40.6238 40.7712 41.1638C40.1376 41.7037 39.3324 42.0002 38.5 42C38.147 41.9997 37.7961 41.9466 37.4588 41.8425C37.0213 41.7069 33.1231 40.3856 31.8631 36.26C30.7869 32.7294 32.1037 28.6256 35.7744 24.0625ZM49.3631 36.2644C50.6231 40.39 54.5213 41.7113 54.9588 41.8469C55.2963 41.9495 55.6472 42.0011 56 42C56.8324 42.0002 57.6376 41.7037 58.2712 41.1638C58.9047 40.6238 59.3251 39.8758 59.4568 39.0538C59.5885 38.2319 59.423 37.3899 58.9899 36.6791C58.5568 35.9682 57.8845 35.4349 57.0938 35.175C57.0938 35.175 56.2188 34.8425 56.0481 34.1906C55.8075 33.3156 56.385 31.3556 58.7256 28.4419C62.3962 23.8744 63.7131 19.7706 62.6369 16.24C61.3769 12.1144 57.4831 10.7931 57.0413 10.6575C56.704 10.5534 56.353 10.5003 56 10.5C55.1684 10.4988 54.3636 10.7937 53.7296 11.3319C53.0957 11.8701 52.6741 12.6164 52.5404 13.4372C52.4067 14.2579 52.5695 15.0995 52.9999 15.8111C53.4302 16.5227 54.0998 17.0578 54.8887 17.3206C54.8887 17.3206 55.7637 17.6575 55.9519 18.3094C56.1925 19.1844 55.615 21.1444 53.2744 24.0581C49.6037 28.6256 48.2869 32.7294 49.3631 36.26V36.2644ZM66.8631 36.2644C68.1231 40.39 72.0212 41.7113 72.4587 41.8469C72.7963 41.9495 73.1472 42.0011 73.5 42C74.3324 42.0002 75.1376 41.7037 75.7712 41.1638C76.4047 40.6238 76.8251 39.8758 76.9568 39.0538C77.0885 38.2319 76.923 37.3899 76.4899 36.6791C76.0568 35.9682 75.3845 35.4349 74.5938 35.175C74.5938 35.175 73.7188 34.8425 73.5481 34.1906C73.3075 33.3156 73.885 31.3556 76.2256 28.4419C79.8962 23.8744 81.2131 19.7706 80.1369 16.24C78.8769 12.1144 74.9831 10.7931 74.5413 10.6575C74.204 10.5534 73.853 10.5003 73.5 10.5C72.6684 10.4988 71.8636 10.7937 71.2296 11.3319C70.5957 11.8701 70.1741 12.6164 70.0404 13.4372C69.9067 14.2579 70.0695 15.0995 70.4999 15.8111C70.9302 16.5227 71.5998 17.0578 72.3888 17.3206C72.3888 17.3206 73.2637 17.6575 73.4519 18.3094C73.6925 19.1844 73.115 21.1444 70.7744 24.0581C67.1038 28.6256 65.7869 32.7294 66.8631 36.26V36.2644ZM98 49H14C13.0717 49 12.1815 49.3688 11.5251 50.0251C10.8687 50.6815 10.5 51.5717 10.5 52.5C10.5154 60.8235 12.806 68.9845 17.1242 76.1002C21.4424 83.216 27.6239 89.0158 35 92.8725V94.5C35 96.3565 35.7375 98.137 37.0503 99.4497C38.363 100.762 40.1435 101.5 42 101.5H70C71.8565 101.5 73.637 100.762 74.9497 99.4497C76.2625 98.137 77 96.3565 77 94.5V92.8725C84.3761 89.0158 90.5576 83.216 94.8758 76.1002C99.194 68.9845 101.485 60.8235 101.5 52.5C101.5 51.5717 101.131 50.6815 100.475 50.0251C99.8185 49.3688 98.9283 49 98 49Z" fill="#69B1FF"/>
</svg>
